<svg width="215" height="141" viewBox="0 0 215 141" fill="none" xmlns="http://www.w3.org/2000/svg">
<g clip-path="url(#clip0_17_2027)">
<path d="M107.414 0.332031L145.695 22.4791V66.7427L107.414 88.8898L69.1334 66.7427V22.4791L107.414 0.332031ZM143.713 27.8249L111.105 84.3993L143.713 65.5513V27.8249ZM71.0856 27.8249V65.5513L103.724 84.3993L71.0856 27.8249ZM106.408 85.1324V3.20352L71.0856 23.5483V23.8538L106.408 85.1324ZM143.713 23.5483L108.39 3.14246V85.1324L143.713 23.8538V23.5483Z" fill="#0F206C"/>
<path d="M35.4278 115.741H26.277C26.1763 114.847 25.9181 113.979 25.5144 113.175C25.1449 112.426 24.6258 111.76 23.9893 111.22C23.3357 110.661 22.5792 110.236 21.7625 109.968C20.8453 109.677 19.8879 109.532 18.9258 109.54C17.2504 109.499 15.6021 109.968 14.1979 110.884C12.8199 111.846 11.7582 113.196 11.1476 114.764C10.3873 116.708 10.0242 118.786 10.08 120.873C10.021 123.02 10.3837 125.159 11.1476 127.166C11.7638 128.714 12.8255 130.043 14.1979 130.984C15.5931 131.864 17.2169 132.31 18.8648 132.267C19.8054 132.286 20.7427 132.152 21.6405 131.87C22.4353 131.631 23.1796 131.248 23.8367 130.74C24.4824 130.241 25.0218 129.618 25.4229 128.907C25.8478 128.149 26.1368 127.322 26.277 126.463H35.4278C35.2613 128.192 34.7642 129.872 33.9636 131.412C33.136 133.072 32.0207 134.572 30.6694 135.841C29.1696 137.191 27.4174 138.229 25.5144 138.896C23.3022 139.728 20.9527 140.132 18.5902 140.088C15.3968 140.133 12.2454 139.355 9.43937 137.827C6.70856 136.299 4.48247 134.006 3.03385 131.229C1.37251 127.972 0.564282 124.345 0.68508 120.69C0.573853 117.022 1.39239 113.386 3.06429 110.12C4.54277 107.363 6.77538 105.085 9.50043 103.553C12.3069 102.026 15.458 101.248 18.6513 101.292C20.8121 101.28 22.962 101.599 25.0263 102.239C26.897 102.827 28.6369 103.771 30.1508 105.019C31.6476 106.246 32.8822 107.763 33.7806 109.479C34.7491 111.382 35.3297 113.459 35.4888 115.588" fill="#0F206C"/>
<path d="M64.7409 120.934C64.7852 118.85 64.4333 116.777 63.7038 114.825C63.0849 113.271 62.0244 111.932 60.6536 110.976C59.2577 110.069 57.6189 109.611 55.9561 109.662C54.3034 109.615 52.6756 110.074 51.2892 110.976C49.9095 111.923 48.8466 113.264 48.2389 114.825C47.5095 116.777 47.1575 118.85 47.2018 120.934C47.1575 123.018 47.5095 125.092 48.2389 127.044C48.8466 128.604 49.9095 129.946 51.2892 130.893C52.6756 131.795 54.3034 132.253 55.9561 132.206C57.6189 132.257 59.2577 131.799 60.6536 130.893C62.0244 129.936 63.0849 128.598 63.7038 127.044C64.4333 125.092 64.7852 123.018 64.7409 120.934ZM74.1053 120.934C74.2071 124.605 73.378 128.241 71.6956 131.504C70.1938 134.264 67.9409 136.542 65.1984 138.071C62.3895 139.591 59.2401 140.369 56.0476 140.332C52.8511 140.371 49.6989 139.582 46.8968 138.041C44.1563 136.519 41.9113 134.239 40.4302 131.473C38.7583 128.219 37.9396 124.592 38.051 120.934C37.9397 117.266 38.7583 113.63 40.4302 110.365C41.9113 107.599 44.1563 105.319 46.8968 103.797C49.7067 102.28 52.8554 101.502 56.0476 101.536C59.2401 101.499 62.3895 102.277 65.1984 103.797C67.9409 105.327 70.1938 107.604 71.6956 110.365C73.378 113.627 74.2071 117.264 74.1053 120.934Z" fill="#0F206C"/>
<path d="M100.765 102.056V123.806H100.46L85.5439 102.056H77.6437V139.813H86.825V118.032H87.0385L102.137 139.813H109.916V102.056H100.765Z" fill="#0F206C"/>
<path d="M139.015 102.056L130.535 129.701H130.2L121.72 102.056H111.441L124.252 139.813H136.484L149.295 102.056H139.015Z" fill="#0F206C"/>
<path d="M150.271 102.056V139.813H176.778V132.39H159.452V124.631H175.436V117.207H159.452V109.479H176.778V102.056H150.271Z" fill="#0F206C"/>
<path d="M203.468 102.056L196.422 113.969H196.116L189.131 102.056H178.73L190.26 120.934L178.425 139.813H188.948L196.116 127.746H196.422L203.59 139.813H214.174L202.278 120.934L213.808 102.056H203.468Z" fill="#0F206C"/>
</g>
<defs>
<clipPath id="clip0_17_2027">
<rect width="213.52" height="140" fill="white" transform="translate(0.654602 0.332031)"/>
</clipPath>
</defs>
</svg>
