<svg width="74" height="91" viewBox="0 0 74 91" fill="none" xmlns="http://www.w3.org/2000/svg">
<path d="M10.5095 90.6066C8.50945 90.6066 8.41943 89.8767 8.35943 89.2867C8.32017 89.0789 8.32386 88.8652 8.37029 88.6588C8.41673 88.4524 8.50494 88.2578 8.62945 88.0868C8.8822 87.8812 9.17311 87.7276 9.48547 87.6349C9.79782 87.5422 10.1255 87.5123 10.4495 87.5468H31.8094V72.7767L30.5294 72.6866C21.9588 72.0479 13.8164 68.688 7.28942 63.0968L6.38946 62.3468L5.49944 63.1166L4.71941 63.8068C4.09941 64.3568 3.56945 64.8067 3.00945 65.2667C2.85103 65.3994 2.6554 65.4797 2.44946 65.4967C2.17499 65.4744 1.91362 65.3698 1.69946 65.1967C0.809456 64.5767 0.929443 64.1366 0.999443 63.8666C1.14582 63.4215 1.40003 63.0196 1.73943 62.6967C2.37943 61.9867 3.08943 61.2966 3.73943 60.6266L4.59942 59.7767C5.31942 59.0567 5.84946 58.7067 6.19946 58.7067C6.89177 58.8679 7.52753 59.2135 8.03942 59.7067L8.54943 60.1166C10.883 62.0592 13.3637 63.8179 15.9694 65.3766C21.1518 68.3175 27.0107 69.8583 32.9694 69.8468C35.3168 69.8349 37.6588 69.6207 39.9694 69.2067C47.2116 67.972 53.8865 64.5035 59.0594 59.2867C65.6036 52.9556 69.5056 44.3799 69.9794 35.2867C70.2817 30.3346 69.5801 25.3725 67.9166 20.6984C66.2532 16.0242 63.6622 11.7344 60.2994 8.08667L60.0594 7.82666C58.4294 5.93666 58.4294 5.90671 60.2094 4.12671L61.0795 3.2467C61.7195 2.5967 62.3795 1.9267 63.0795 1.2467C63.4169 0.881436 63.8751 0.650541 64.3694 0.59668C64.5419 0.60599 64.7104 0.65178 64.8638 0.731079C65.0173 0.810378 65.1521 0.921339 65.2595 1.05664C65.7695 1.57664 66.0895 2.20663 65.0795 3.29663C64.7795 3.60663 64.4295 3.91669 64.0795 4.23669L63.4594 4.77673L62.4594 5.65674L63.2694 6.65674C73.7794 19.7867 76.0494 33.7268 69.9894 48.0868C63.8694 62.6068 52.4694 70.9168 36.0994 72.7968L34.8794 72.9366V87.5167H56.2994C57.5494 87.5167 57.9094 87.7567 58.1694 88.2167C58.3089 88.4247 58.3963 88.6633 58.4241 88.9122C58.452 89.1611 58.4195 89.4129 58.3295 89.6466C58.2242 89.8635 58.0684 90.0523 57.8753 90.1967C57.6822 90.3411 57.4573 90.437 57.2194 90.4767C56.8913 90.5499 56.5555 90.5836 56.2194 90.5768H10.5095V90.6066Z" fill="#F5F7FD"/>
<path d="M33.2994 61.0167C29.5811 61.0802 25.8885 60.39 22.4443 58.9877C19 57.5854 15.8755 55.4999 13.259 52.8573C10.6425 50.2147 8.58833 47.0695 7.22035 43.6115C5.85237 40.1534 5.19892 36.4541 5.29939 32.7367C5.43939 16.8667 17.4394 4.89673 33.2194 4.89673H33.4094C51.3294 5.00673 61.0994 19.1167 61.4794 32.9967C61.0694 49.2167 49.2494 60.9967 33.3794 60.9967L33.2994 61.0167ZM33.2394 7.92664C28.3017 7.93755 23.4778 9.4104 19.3761 12.1594C15.2744 14.9084 12.0787 18.8105 10.1918 23.3735C8.30504 27.9365 7.8117 32.9561 8.77406 37.7991C9.73642 42.6421 12.1114 47.0918 15.5994 50.5868C17.8933 52.9387 20.633 54.8098 23.6583 56.0907C26.6837 57.3716 29.934 58.0366 33.2194 58.0468C36.5687 58.0571 39.8863 57.3979 42.9774 56.1083C46.0684 54.8186 48.8706 52.9245 51.2194 50.5367C53.5472 48.2201 55.3893 45.4622 56.6376 42.4246C57.886 39.3869 58.5155 36.1307 58.4894 32.8467C58.4789 29.556 57.8189 26.2998 56.5473 23.2648C55.2756 20.2297 53.4172 17.4756 51.0787 15.1604C48.7403 12.8452 45.9678 11.0144 42.9202 9.77307C39.8727 8.53174 36.61 7.90424 33.3194 7.92664H33.2394Z" fill="#F5F7FD"/>
</svg>
