<svg width="113" height="91" viewBox="0 0 113 91" fill="none" xmlns="http://www.w3.org/2000/svg">
<path d="M33.6415 90.4087C33.3592 90.3553 33.0931 90.2372 32.8641 90.0637C32.635 89.8902 32.4494 89.666 32.3215 89.4087C32.1444 88.9576 32.0792 88.4705 32.1315 87.9888V87.7288C32.1315 84.4421 32.1315 81.1587 32.1315 77.8787V73.6487H5.13152C4.41677 73.6621 3.70347 73.578 3.01146 73.3987C2.38694 73.2468 1.80825 72.9467 1.32433 72.5237C0.840412 72.1007 0.465558 71.5673 0.231495 70.9688C0.0273701 70.3748 -0.0310282 69.7404 0.0612067 69.1191C0.153442 68.4979 0.393577 67.9078 0.761463 67.3987C1.45047 66.4278 2.2056 65.5056 3.02147 64.6387C3.27147 64.3687 3.52146 64.0886 3.76146 63.8086L11.8615 54.5686L14.8615 51.2188H11.2915C10.5577 51.2341 9.82414 51.177 9.10149 51.0486C8.35633 50.941 7.65326 50.6372 7.0645 50.168C6.47575 49.6987 6.02257 49.0811 5.75151 48.3787C5.53226 47.6511 5.50925 46.8785 5.68486 46.1392C5.86048 45.3998 6.22848 44.72 6.75151 44.1687C9.17151 41.3287 11.6115 38.5187 14.0515 35.7087C15.1415 34.4687 16.2215 33.2188 17.3015 31.9788L20.0515 28.7787H15.8515C15.1193 28.8336 14.3852 28.704 13.7161 28.4017C13.0469 28.0995 12.4643 27.6343 12.0215 27.0487C10.7415 25.2687 10.9715 23.2187 12.6515 21.4187L22.8415 10.5687L27.6015 5.49866L28.8015 4.20874C29.6215 3.32874 30.4415 2.44874 31.2815 1.57874C31.5685 1.20908 31.9361 0.909894 32.3564 0.704102C32.7767 0.498309 33.2385 0.391357 33.7065 0.391357C34.1744 0.391357 34.6362 0.498309 35.0565 0.704102C35.4768 0.909894 35.8445 1.20908 36.1315 1.57874C41.5449 7.33207 46.9481 13.0853 52.3415 18.8386L54.8415 21.4987C55.477 22.0828 55.9161 22.8493 56.0985 23.693C56.2809 24.5367 56.1976 25.4162 55.8601 26.2107C55.5226 27.0052 54.9474 27.6756 54.2136 28.13C53.4797 28.5844 52.6231 28.8006 51.7615 28.7487C51.1815 28.7487 50.6015 28.7487 49.9915 28.7487H47.2915L57.2315 40.2388C58.3115 41.4888 59.3815 42.7287 60.4715 43.9688C61.0998 44.5856 61.5247 45.3796 61.6891 46.2446C61.8535 47.1096 61.7496 48.0042 61.3915 48.8086C61.058 49.5749 60.4929 50.2176 59.7754 50.6462C59.058 51.0749 58.2243 51.2682 57.3915 51.1987H57.2215H55.3815H52.6115L52.6915 51.2986C52.8101 51.4828 52.9439 51.6567 53.0915 51.8186L56.5615 55.8186C59.6415 59.3286 62.8315 62.9486 65.9115 66.5586C66.6467 67.4052 67.1193 68.4477 67.2715 69.5586C67.3286 70.0354 67.2824 70.519 67.1357 70.9763C66.989 71.4336 66.7454 71.8541 66.4215 72.2087C65.9412 72.6965 65.3659 73.0804 64.7311 73.3367C64.0964 73.593 63.4158 73.7162 62.7315 73.6987H58.5515H35.1815V88.3787C35.2347 88.7541 35.1755 89.1369 35.0115 89.4788C34.8703 89.7356 34.6745 89.9583 34.4377 90.1311C34.201 90.3039 33.9291 90.4226 33.6415 90.4788V90.4087ZM47.2315 70.5586H62.5015C63.3015 70.5586 63.8615 70.5086 64.1615 69.7786C64.4615 69.0486 64.0915 68.7788 63.6515 68.2588L63.5415 68.1387L46.8815 49.3586C46.7315 49.1886 46.5915 49.0186 46.4115 48.7886L45.8615 48.1086H52.4015C53.9015 48.1086 55.4015 48.1086 56.9015 48.1086C57.4915 48.1086 58.3215 47.8188 58.4715 47.4988C58.4876 47.2091 58.4454 46.9191 58.3475 46.646C58.2496 46.3729 58.0979 46.1222 57.9015 45.9087C53.9015 41.162 49.8749 36.4287 45.8215 31.7087L41.6315 26.7887C41.5031 26.6341 41.3861 26.4703 41.2815 26.2987L40.8715 25.6987H51.8715C52.0912 25.7318 52.3156 25.6907 52.5093 25.582C52.7031 25.4734 52.8551 25.3033 52.9415 25.0986C53.2315 24.4286 52.8415 24.0287 52.3915 23.5587L41.9915 12.4886L33.7015 3.65869C33.6484 3.68332 33.5982 3.71346 33.5515 3.74866L31.9715 5.43872C26.2048 11.5721 20.4481 17.712 14.7015 23.8586C14.5593 24.0194 14.4536 24.2089 14.3915 24.4143C14.3293 24.6197 14.3123 24.8361 14.3415 25.0487C14.5002 25.231 14.695 25.3784 14.9136 25.4817C15.1322 25.585 15.3699 25.6418 15.6115 25.6487C17.2415 25.6487 18.8615 25.6487 20.4915 25.6487H25.1815C25.3915 25.6487 25.6115 25.6487 25.8815 25.6487H26.7215C26.7215 25.6487 25.5415 27.0487 25.3115 27.3087L22.1515 30.9786C17.8715 35.9786 13.5815 40.9087 9.33147 45.9087C9.15598 46.1212 9.02633 46.3678 8.95061 46.6328C8.87489 46.8978 8.85474 47.1756 8.89147 47.4487C8.97147 47.6687 9.7115 47.9588 10.2415 47.9688C12.0315 47.9688 13.8215 47.9688 15.6415 47.9688H21.5015L20.9815 48.6086C20.8415 48.7986 20.7315 48.9286 20.6215 49.0586L3.82152 68.1787L3.64147 68.3687C3.14147 68.9187 2.85149 69.2888 3.22149 69.7288C3.65876 70.1505 4.24401 70.3838 4.85149 70.3787C9.97149 70.3787 15.0982 70.3787 20.2315 70.3787H31.0915C31.3415 70.3787 31.5915 70.3787 31.8415 70.3787H32.0615V70.2886C32.0699 70.1921 32.0699 70.0953 32.0615 69.9988V66.9988C32.0615 62.1188 32.0615 57.0686 32.0615 52.0986C31.9886 51.6274 31.7597 51.1943 31.4115 50.8687C29.5915 49.0487 27.7615 47.2487 25.9215 45.4387L23.3515 42.9187L23.1615 42.7388C22.8795 42.5427 22.6717 42.2573 22.5715 41.9287C22.4215 40.9887 22.4815 40.3786 22.7715 40.0786C23.0517 39.8489 23.4105 39.7379 23.7715 39.7688C24.0325 39.7723 24.293 39.7922 24.5515 39.8286C24.8956 39.9357 25.1967 40.1494 25.4115 40.4387L25.5515 40.5886C27.3315 42.3986 29.1015 44.2086 30.8515 46.0386C31.1345 46.3533 31.3952 46.6874 31.6315 47.0386C31.7015 47.1486 31.7815 47.2486 31.8515 47.3486L32.0415 47.2188V30.9886C32.0415 28.8386 32.8715 28.3887 33.5715 28.3887C34.5715 28.3887 35.1015 29.2687 35.1015 30.9587V58.6487L35.3815 58.8286L35.4715 58.6387C35.5928 58.3515 35.7581 58.0849 35.9615 57.8486C37.9615 55.7086 40.0715 53.5888 41.6515 51.9888C41.9401 51.6266 42.3247 51.3528 42.7615 51.1987C42.9696 51.1624 43.1802 51.1423 43.3915 51.1387C43.7482 51.118 44.1012 51.2204 44.3915 51.4287C44.5627 51.6618 44.6832 51.928 44.7452 52.2104C44.8072 52.4929 44.8094 52.7853 44.7515 53.0686C44.605 53.5338 44.3229 53.9448 43.9415 54.2488C43.3515 54.8288 42.8115 55.3887 42.2615 55.9487C40.8814 57.4336 39.412 58.8328 37.8615 60.1387C35.5115 62.0587 34.6415 64.1387 35.0515 66.9087C35.157 67.788 35.1771 68.6754 35.1115 69.5586V70.5586H47.2315Z" fill="#F5F7FD"/>
<path d="M78.3615 90.3887C77.8415 90.3887 77.3015 89.6888 77.0615 89.2488C76.9135 88.8952 76.8651 88.5078 76.9215 88.1287C76.9215 88.0087 76.9215 87.8886 76.9215 87.7786V85.3286C76.9215 78.202 76.9215 71.0721 76.9215 63.9387C76.9374 63.6004 76.8785 63.2626 76.7488 62.9497C76.6192 62.6368 76.422 62.3565 76.1715 62.1287C74.1715 60.2487 72.2715 58.3387 70.3415 56.4387L68.2415 54.3687L68.0715 54.2087C67.924 54.0729 67.7837 53.9292 67.6515 53.7786C67.3232 53.4785 67.1272 53.0607 67.1066 52.6165C67.086 52.1722 67.2424 51.7378 67.5415 51.4087C67.68 51.2602 67.847 51.1411 68.0326 51.0586C68.2181 50.9761 68.4184 50.932 68.6215 50.9287C69.099 50.95 69.553 51.1416 69.9015 51.4688C70.2914 51.8253 70.6619 52.2024 71.0114 52.5986L71.4615 53.0786L76.6915 58.5486H76.7515V31.0487C76.7515 28.9787 77.5714 28.5387 78.2614 28.5387C78.9514 28.5387 79.8215 29.0087 79.8315 31.0787V47.3086L79.9215 47.2388C80.1215 47.0688 80.2715 46.9386 80.4115 46.7986L86.3315 40.7188C86.5011 40.5279 86.6886 40.3538 86.8914 40.1987C87.2431 39.9203 87.6734 39.7594 88.1215 39.7388C88.3099 39.7426 88.4956 39.7845 88.6674 39.8618C88.8392 39.9391 88.9937 40.0503 89.1215 40.1887C89.2743 40.347 89.3938 40.5343 89.4732 40.7395C89.5525 40.9447 89.59 41.1637 89.5835 41.3835C89.5769 41.6034 89.5265 41.8197 89.4352 42.0198C89.3438 42.2199 89.2134 42.3996 89.0515 42.5486C88.9073 42.7328 88.7466 42.9035 88.5715 43.0586L88.3815 43.2388L86.4315 45.1487C84.4315 47.0987 82.4315 49.0488 80.4315 51.0188C80.0814 51.343 79.8521 51.7768 79.7815 52.2488C79.7815 57.1288 79.7815 62.0987 79.7815 66.8987V70.2488C79.7815 70.3088 79.7815 70.3687 79.7815 70.4587V70.5286H79.9415C80.1615 70.5286 80.3815 70.5286 80.6115 70.5286H107.331C107.747 70.5647 108.163 70.4706 108.521 70.2588C108.735 70.1035 108.879 69.8697 108.921 69.6086C108.912 69.4015 108.86 69.1984 108.771 69.0112C108.682 68.8241 108.556 68.6568 108.401 68.5188C106.021 65.8521 103.645 63.1554 101.271 60.4287L90.4415 48.0986H97.3415C98.7315 48.0986 100.111 48.0986 101.501 48.0986C101.952 48.0547 102.392 47.933 102.801 47.7388C102.948 47.6702 103.098 47.6099 103.251 47.5586L103.101 47.0886C102.999 46.6549 102.816 46.2444 102.561 45.8787C98.3748 40.932 94.1748 35.9954 89.9615 31.0687L86.2915 26.7687C86.1815 26.6387 86.0715 26.4987 85.9415 26.3187L85.4615 25.6887H95.4615H95.8415H96.2915C96.417 25.713 96.546 25.713 96.6715 25.6887C97.4215 25.4287 97.6715 25.1887 97.6715 25.0387C97.7124 24.8395 97.7103 24.634 97.6655 24.4357C97.6207 24.2374 97.5341 24.0509 97.4115 23.8887C96.7215 23.0687 95.9615 22.2787 95.2315 21.5087L94.4015 20.6387L78.2915 3.39868C78.2509 3.46658 78.2142 3.53665 78.1815 3.60864C78.0428 3.9109 77.8646 4.19347 77.6515 4.44873C73.3115 9.04206 68.9781 13.6254 64.6515 18.1987L61.9315 21.0587C61.7867 21.2378 61.606 21.3846 61.401 21.4896C61.1961 21.5947 60.9714 21.6557 60.7415 21.6687C60.3604 21.6538 60.0008 21.4884 59.7415 21.2087C59.5835 21.068 59.4571 20.8954 59.3706 20.7024C59.284 20.5094 59.2393 20.3002 59.2393 20.0886C59.2393 19.8771 59.284 19.668 59.3706 19.475C59.4571 19.2819 59.5835 19.1093 59.7415 18.9686C60.4315 18.2186 61.1315 17.4786 61.8215 16.7386L75.7315 1.94873C76.0259 1.48619 76.4323 1.10536 76.913 0.841553C77.3937 0.577742 77.9332 0.439453 78.4815 0.439453C79.0298 0.439453 79.5693 0.577742 80.05 0.841553C80.5306 1.10536 80.937 1.48619 81.2315 1.94873L88.4715 9.65869C92.1315 13.572 95.7981 17.472 99.4715 21.3586C100.971 22.9586 101.361 24.5586 100.651 26.2286C99.9415 27.8986 98.4815 28.8087 96.2315 28.8087H92.2315L92.3515 28.9686C92.5515 29.2286 92.7015 29.4287 92.8715 29.6287L95.4915 32.6287C98.7448 36.3887 102.001 40.142 105.261 43.8887C105.91 44.5113 106.353 45.3167 106.531 46.1975C106.71 47.0783 106.616 47.9926 106.261 48.8186C105.918 49.6031 105.336 50.2594 104.598 50.6938C103.86 51.1283 103.004 51.319 102.151 51.2388H101.882C101.301 51.2388 100.711 51.2388 100.111 51.2388H97.4514L97.5315 51.3486C97.7115 51.5786 97.8614 51.7587 98.0114 51.9287L100.941 55.2688C104.195 58.9888 107.451 62.702 110.711 66.4087C112.251 68.1487 112.611 69.6986 111.841 71.2986C111.071 72.8986 109.581 73.6887 107.391 73.6887H79.9915V77.7886C79.9915 81.2152 79.9915 84.6453 79.9915 88.0786C79.9915 88.1686 79.9915 88.2687 79.9915 88.3687C80.0523 88.7343 79.9926 89.1099 79.8215 89.4387C79.6626 89.693 79.454 89.9127 79.2083 90.0845C78.9626 90.2563 78.6848 90.3767 78.3914 90.4387L78.3615 90.3887Z" fill="#F5F7FD"/>
</svg>
