<svg width="91" height="91" viewBox="0 0 91 91" fill="none" xmlns="http://www.w3.org/2000/svg">
<g clip-path="url(#clip0_22_17)">
<path d="M45.0617 90.0581C33.1264 90.0437 21.6853 85.2905 13.2534 76.8434C4.82156 68.3962 0.0890278 56.9465 0.0962225 45.0112C0.103417 33.0759 4.84975 21.6319 13.2918 13.195C21.7339 4.75798 33.1807 0.0185852 45.116 0.0185852C57.0512 0.0185852 68.4981 4.75798 76.9401 13.195C85.3822 21.6319 90.1285 33.0759 90.1357 45.0112C90.1429 56.9465 85.4104 68.3962 76.9785 76.8434C68.5466 85.2905 57.1055 90.0437 45.1702 90.0581H45.0617ZM45.0617 3.92644C34.1706 3.9757 23.7391 8.32209 16.0351 16.0206C8.33112 23.719 3.97734 34.1474 3.92024 45.0384C3.96158 55.9192 8.29422 66.3443 15.9771 74.0493C23.6599 81.7544 34.0725 86.117 44.9531 86.1897H45.0716C55.9803 86.1897 66.4423 81.8562 74.1559 74.1426C81.8696 66.4289 86.2031 55.967 86.2031 45.0582C86.2031 34.1494 81.8696 23.6872 74.1559 15.9736C66.4423 8.25991 55.9803 3.92644 45.0716 3.92644L44.9926 3.33448L45.0617 3.92644Z" fill="#F5F7FD"/>
<path d="M45.1011 73.3411C42.9113 73.3152 40.7715 72.6826 38.9196 71.5136C37.0677 70.3446 35.5763 68.6852 34.611 66.7194C32.1538 61.9332 33.7426 55.6865 38.3018 52.1931C40.178 50.7796 42.466 50.0202 44.815 50.0317C48.0118 50.082 51.0729 51.3326 53.3906 53.5351L63.4465 46.4694L70.8281 41.2588L71.3215 40.9232C71.823 40.5821 72.4126 40.3937 73.0189 40.3806C73.3113 40.367 73.6027 40.4233 73.8687 40.5452C74.1348 40.6671 74.3679 40.851 74.5485 41.0812C74.6857 41.2753 74.7818 41.4952 74.831 41.7277C74.8802 41.9601 74.8814 42.2001 74.8347 42.4331C74.7672 42.8093 74.625 43.1683 74.4165 43.4886C74.208 43.8089 73.9375 44.0843 73.6209 44.2984L56.3117 56.318L55.7393 56.7324C56.5469 58.5449 56.8861 60.5314 56.7257 62.5092C56.5654 64.487 55.9106 66.3927 54.8216 68.0515C53.4589 70.2029 51.406 71.8279 48.9992 72.6602C47.7497 73.1135 46.4303 73.3439 45.1011 73.3411ZM45.2492 54.0285H44.8544C42.8077 54.0573 40.8563 54.8979 39.4294 56.3655C38.0026 57.8331 37.2171 59.8076 37.2459 61.8543C37.2747 63.901 38.1153 65.8524 39.5829 67.2793C41.0505 68.7062 43.0248 69.4916 45.0716 69.4628H45.4466C46.5103 69.4096 47.5526 69.1437 48.5119 68.681C49.4713 68.2183 50.3282 67.5681 51.0321 66.7688C51.6814 66.0557 52.1796 65.2184 52.4968 64.3077C52.8139 63.3969 52.9434 62.4315 52.8774 61.4693C52.4531 56.318 48.7426 54.0285 45.2492 54.0285Z" fill="#F5F7FD"/>
<path d="M45.111 17.8312C44.679 17.8394 44.2499 17.7598 43.8496 17.597C43.4494 17.4343 43.0865 17.1919 42.7828 16.8846C42.4792 16.5772 42.2411 16.2113 42.0832 15.8091C41.9253 15.4069 41.8509 14.9768 41.8643 14.5449C41.8472 14.1125 41.9169 13.681 42.0694 13.276C42.2219 12.8709 42.454 12.5007 42.7521 12.187C43.0502 11.8732 43.4082 11.6225 43.8049 11.4495C44.2016 11.2765 44.6289 11.1848 45.0617 11.1799C45.9437 11.1681 46.7943 11.5073 47.4263 12.1226C48.0583 12.738 48.42 13.5791 48.4317 14.4611C48.4435 15.3431 48.1045 16.1938 47.4891 16.8258C46.8738 17.4578 46.0326 17.8194 45.1505 17.8312H45.111Z" fill="#F5F7FD"/>
<path d="M25.6307 26.1304C25.1956 26.1364 24.7639 26.053 24.3624 25.8853C23.9608 25.7177 23.598 25.4694 23.2964 25.1558C22.9948 24.8421 22.7608 24.4698 22.609 24.062C22.4571 23.6542 22.3906 23.2196 22.4136 22.7851C22.402 22.1328 22.5872 21.4921 22.9449 20.9465C23.3027 20.401 23.8165 19.976 24.4194 19.7267C25.0222 19.4775 25.6863 19.4158 26.3248 19.5494C26.9633 19.683 27.5468 20.0057 27.9992 20.4758C28.4543 20.9394 28.7635 21.5263 28.8889 22.1637C29.0142 22.8011 28.9502 23.4613 28.7046 24.0627C28.459 24.6641 28.0426 25.1806 27.5068 25.548C26.9711 25.9155 26.3395 26.1178 25.6899 26.1304H25.6307Z" fill="#F5F7FD"/>
<path d="M64.5814 26.1304C64.1494 26.1386 63.7203 26.059 63.3201 25.8962C62.9198 25.7335 62.5569 25.4911 62.2532 25.1838C61.9495 24.8764 61.7116 24.5105 61.5537 24.1083C61.3958 23.7061 61.3213 23.2762 61.3347 22.8444C61.3175 22.4111 61.3876 21.9787 61.5406 21.573C61.6937 21.1673 61.9268 20.7967 62.2259 20.4828C62.5251 20.1689 62.8842 19.9182 63.2821 19.7458C63.6799 19.5734 64.1084 19.4827 64.542 19.4791C65.4175 19.4866 66.2556 19.8351 66.8784 20.4505C67.5011 21.0659 67.8595 21.8999 67.8775 22.7752C67.888 23.653 67.5501 24.4992 66.9378 25.1281C66.3255 25.7571 65.4887 26.1174 64.611 26.1304H64.5814Z" fill="#F5F7FD"/>
<path d="M17.3018 45.6008C16.8673 45.6105 16.4353 45.5314 16.0326 45.3681C15.6298 45.2047 15.2647 44.9607 14.9597 44.6511C14.6547 44.3414 14.4162 43.9728 14.259 43.5676C14.1017 43.1624 14.029 42.7293 14.0452 42.295C14.0279 41.861 14.0986 41.4281 14.2531 41.0222C14.4077 40.6163 14.6428 40.2458 14.9443 39.9332C15.2458 39.6206 15.6076 39.3722 16.0076 39.2032C16.4077 39.0341 16.8379 38.9478 17.2722 38.9495C18.1467 38.9623 18.9816 39.3163 19.5991 39.9356C20.2167 40.555 20.5679 41.3908 20.5781 42.2654C20.5732 43.1383 20.2283 43.975 19.6166 44.5978C19.0048 45.2206 18.1745 45.5803 17.3018 45.6008Z" fill="#F5F7FD"/>
</g>
<defs>
<clipPath id="clip0_22_17">
<rect width="90.0296" height="90" fill="white" transform="translate(0.111015 0.0581055)"/>
</clipPath>
</defs>
</svg>
