<svg width="123" height="82" viewBox="0 0 123 82" fill="none" xmlns="http://www.w3.org/2000/svg">
<path d="M61.2783 81.4406C45.8258 81.4406 30.3824 81.4406 14.939 81.4406C9.16121 81.4406 4.58937 79.0737 2.05146 73.7639C1.13985 71.7693 0.66429 69.6031 0.656524 67.4101C0.548528 49.7709 0.566511 32.1408 0.611509 14.5016C0.611509 7.64388 4.56236 2.57704 11.0421 0.93911C12.3177 0.628787 13.6262 0.474654 14.939 0.480121C45.8799 0.480121 76.8207 0.480121 107.762 0.480121C116.23 0.480121 122.161 6.3388 122.161 14.8074C122.161 32.2487 122.161 49.6961 122.161 67.1493C122.161 74.205 118.336 79.2357 111.658 80.9726C110.339 81.2984 108.985 81.4586 107.627 81.4496C92.1591 81.4436 76.7097 81.4406 61.2783 81.4406ZM61.4133 3.75588H15.047C8.06324 3.75588 3.8064 7.98567 3.7974 14.9694C3.7974 32.2726 3.7974 49.579 3.7974 66.8883C3.76871 68.0579 3.8958 69.226 4.17537 70.362C5.53432 75.3928 9.35017 78.1378 14.849 78.1378H107.681C114.547 78.1378 118.885 73.8719 118.894 67.0052C118.894 49.6479 118.894 32.2938 118.894 14.9426C118.894 8.00386 114.556 3.75588 107.582 3.75588H61.4133Z" fill="#F5F7FD"/>
<path d="M102.607 33.4727V32.9328C102.607 32.1474 101.971 31.5108 101.185 31.5108L57.0332 31.5108C56.2479 31.5108 55.6112 32.1474 55.6112 32.9328V33.4727C55.6112 34.258 56.2479 34.8947 57.0332 34.8947H101.185C101.971 34.8947 102.607 34.258 102.607 33.4727Z" fill="#F5F7FD"/>
<path d="M102.607 53.7399V53.1999C102.607 52.4146 101.971 51.778 101.186 51.778H57.0332C56.2479 51.778 55.6112 52.4146 55.6112 53.1999V53.7399C55.6112 54.5252 56.2479 55.1618 57.0332 55.1618H101.186C101.971 55.1618 102.607 54.5252 102.607 53.7399Z" fill="#F5F7FD"/>
<path d="M43.2276 51.0131C42.956 52.2261 42.4089 53.3604 41.6286 54.328C40.8483 55.2956 39.8557 56.0704 38.7278 56.5928C37.0596 57.4197 35.2338 57.8799 33.373 57.9428V64.6657C33.373 65.0436 33.2235 65.4061 32.9571 65.6742C32.6906 65.9423 32.329 66.0941 31.951 66.0965H31.4201C31.2322 66.0965 31.0461 66.0594 30.8725 65.9875C30.6989 65.9156 30.5411 65.8104 30.4082 65.6775C30.2753 65.5446 30.1699 65.3868 30.098 65.2132C30.0261 65.0396 29.9891 64.8536 29.9891 64.6657V57.8079C26.8978 57.3725 23.8924 56.4618 21.0795 55.108C20.887 55.0247 20.713 54.9039 20.5679 54.7525C20.4227 54.6011 20.3092 54.4221 20.2342 54.2263C20.1591 54.0304 20.1239 53.8216 20.1306 53.6119C20.1374 53.4023 20.1859 53.1959 20.2734 53.0053C20.361 52.8147 20.4857 52.6435 20.6403 52.5017C20.7949 52.3599 20.9763 52.2505 21.1737 52.1798C21.3712 52.1091 21.5808 52.0786 21.7903 52.09C21.9997 52.1013 22.2047 52.1545 22.3934 52.2462C24.7984 53.4036 27.356 54.2126 29.9891 54.649C31.1081 54.8236 32.2428 54.8749 33.373 54.8019C34.7335 54.7468 36.0673 54.4066 37.2879 53.8031C37.9821 53.4913 38.5969 53.0266 39.0863 52.4437C39.5756 51.8608 39.9268 51.175 40.1137 50.4372C40.9507 46.0184 38.4578 44.3804 33.373 42.6885C32.473 42.3915 31.5281 42.0945 30.4841 41.7885L29.9891 41.6446L27.6492 40.9156C20.6385 38.6387 19.7565 33.5628 20.2695 31.1959C20.436 30.1206 20.8378 29.0953 21.446 28.1931C22.0543 27.2908 22.854 26.5341 23.7884 25.9763C25.6861 24.9232 27.8188 24.366 29.9891 24.3564V20.5405C29.9915 20.1626 30.1433 19.8009 30.4114 19.5345C30.6795 19.268 31.0421 19.1185 31.4201 19.1185H31.951C32.1378 19.1185 32.3227 19.1554 32.4952 19.2269C32.6677 19.2983 32.8245 19.4031 32.9565 19.5351C33.0885 19.6672 33.1933 19.8238 33.2648 19.9963C33.3362 20.1688 33.373 20.3538 33.373 20.5405V24.4552C35.5041 24.6582 37.6125 25.0528 39.6727 25.6342C40.0547 25.7683 40.3704 26.0442 40.5543 26.4048C40.7382 26.7654 40.7762 27.183 40.6604 27.5708C40.5447 27.9587 40.2839 28.2872 39.9325 28.4879C39.581 28.6887 39.1657 28.7465 38.7728 28.6492C37.0067 28.1463 35.1998 27.7998 33.373 27.6141C32.2491 27.4971 31.1182 27.4611 29.9891 27.5062C28.3991 27.5062 26.834 27.9021 25.4353 28.6582C24.8773 28.9967 24.4013 29.4547 24.0418 29.9994C23.6823 30.5441 23.4482 31.1619 23.3564 31.8081C23.2754 32.2671 22.7444 36.0107 28.6212 37.9186L29.9891 38.3508L31.393 38.7738L33.373 39.3857C39.2858 41.2216 44.6406 43.6424 43.2276 51.0131Z" fill="#F5F7FD"/>
</svg>
