<svg width="285" height="62" viewBox="0 0 285 62" fill="none" xmlns="http://www.w3.org/2000/svg">
<path d="M112.866 26.0231H104.002C103.893 25.1792 103.647 24.3589 103.273 23.5945C102.921 22.8776 102.425 22.241 101.816 21.7245C101.188 21.1923 100.462 20.7881 99.6788 20.5345C98.8024 20.2426 97.8824 20.1029 96.9588 20.1217C95.3351 20.082 93.7394 20.5488 92.3931 21.4574C91.0736 22.3784 90.0589 23.6722 89.4788 25.1731C88.7329 27.0487 88.3776 29.0568 88.4345 31.0745C88.3792 33.1316 88.7342 35.179 89.4788 37.0974C90.0351 38.5656 91.0365 39.8232 92.3429 40.6941C93.6493 41.565 95.1953 42.0057 96.7645 41.9545C97.668 41.9645 98.5681 41.8418 99.4359 41.5902C100.204 41.3648 100.921 40.9938 101.549 40.4974C102.156 40.0233 102.666 39.4381 103.055 38.7731C103.459 38.0135 103.738 37.1933 103.88 36.3445H112.745C112.6 38.0375 112.13 39.6867 111.36 41.2017C109.679 44.5716 106.779 47.1762 103.249 48.4874C101.121 49.2776 98.8642 49.6646 96.5945 49.6288C93.5116 49.6754 90.4681 48.9313 87.7545 47.4674C85.1411 45.9982 83.0076 43.8056 81.6102 41.1531C80.0732 37.9982 79.3549 34.5071 79.5217 31.0017C79.4534 27.474 80.2895 23.9876 81.9502 20.8745C83.3733 18.2308 85.5218 16.0486 88.1431 14.5845C90.8239 13.1266 93.8346 12.3823 96.8859 12.4231C98.9539 12.4064 101.011 12.7179 102.982 13.346C104.749 13.9234 106.396 14.8207 107.839 15.9931C109.268 17.158 110.442 18.6047 111.287 20.2431C112.208 22.0442 112.769 24.0074 112.939 26.0231" fill="white"/>
<path d="M141.012 31.0017C141.069 28.9625 140.722 26.9322 139.992 25.0274C139.468 23.5375 138.475 22.2582 137.161 21.3822C135.846 20.5061 134.283 20.0808 132.707 20.1702C131.073 20.1204 129.464 20.5693 128.092 21.4574C126.788 22.3726 125.79 23.6588 125.227 25.1488C124.497 27.0537 124.15 29.0839 124.207 31.1231C124.15 33.1622 124.497 35.1925 125.227 37.0974C125.811 38.5429 126.807 39.7845 128.092 40.6674C129.435 41.5148 130.998 41.9458 132.585 41.9059C134.162 41.9954 135.725 41.57 137.039 40.694C138.353 39.818 139.347 38.5387 139.871 37.0488C140.601 35.1439 140.947 33.1137 140.891 31.0745M149.852 31.0745C149.92 34.6022 149.084 38.0886 147.424 41.2017C145.996 43.8587 143.828 46.0439 141.182 47.4917C138.465 48.911 135.445 49.6523 132.379 49.6523C129.313 49.6523 126.293 48.911 123.575 47.4917C120.951 46.013 118.796 43.8246 117.358 41.1774C115.751 38.0585 114.965 34.5814 115.075 31.0745C114.962 27.5596 115.748 24.0739 117.358 20.9474C118.79 18.302 120.947 16.1199 123.575 14.6574C126.293 13.238 129.313 12.4968 132.379 12.4968C135.445 12.4968 138.465 13.238 141.182 14.6574C143.823 16.1118 145.99 18.2953 147.424 20.9474C149.084 24.0604 149.92 27.5468 149.852 31.0745Z" fill="white"/>
<path d="M184.338 12.9088V49.0945H176.883L162.408 28.2088H162.165V49.0945H153.374V12.9088H160.951L175.255 33.7702H175.571V12.9088H184.338Z" fill="white"/>
<path d="M195.655 12.9088L203.815 39.4045H204.106L212.266 12.9088H222.126L209.838 49.0945H198.108L185.795 12.9088H195.655Z" fill="white"/>
<path d="M223.074 49.0946V12.9089H248.501V20.0246H231.89V27.4317H247.214V34.5474H231.89V41.9789H248.501V49.0946H223.074Z" fill="white"/>
<path d="M274.123 12.9089L267.347 24.3474H267.056L260.353 12.9089H250.371L261.446 31.0017L250.08 49.0946H260.183L267.056 37.5346H267.347L274.22 49.0946H284.396L272.982 31.0017L284.032 12.9089H274.123Z" fill="white"/>
<path d="M27.501 61.5288L54.0453 46.3502V15.9931L27.501 61.5288Z" fill="#0F206C"/>
<path d="M0.932617 46.3502L27.5012 61.5288L0.932617 15.9931V46.3502Z" fill="#416BA9"/>
<path d="M27.501 0.814514V61.5288L54.0453 15.9931L27.501 0.814514Z" fill="#6AAAE4"/>
<path d="M27.5012 0.814514L0.932617 15.9931L27.5012 61.5288V0.814514Z" fill="#B8D8EB"/>
</svg>
