<svg width="68" height="91" viewBox="0 0 68 91" fill="none" xmlns="http://www.w3.org/2000/svg">
<path d="M67.8554 31.5685C67.9092 30.6731 67.7751 29.7766 67.4616 28.9362C67.1482 28.0957 66.6624 27.3301 66.0354 26.6886C57.8954 18.5686 49.7687 10.4485 41.6554 2.32852C41.0568 1.70775 40.3368 1.21695 39.5402 0.886624C38.7437 0.556297 37.8876 0.393594 37.0254 0.408597C28.7054 0.408597 20.3754 0.408597 12.0254 0.408597C9.46151 0.335429 6.95069 1.1477 4.91541 2.70865C3.43918 3.84435 2.25783 5.31849 1.47114 7.00674C0.684448 8.695 0.315491 10.5478 0.395395 12.4086C0.445395 23.4086 0.395395 34.4085 0.395395 45.3485C0.395395 56.2885 0.395395 67.2286 0.395395 78.1786C0.364091 79.465 0.505332 80.7498 0.815378 81.9987C1.47149 84.4567 2.9407 86.6201 4.98359 88.1364C7.02648 89.6527 9.52264 90.4323 12.0654 90.3485C26.7554 90.3485 41.4554 90.3485 56.1454 90.3485C57.9404 90.3264 59.71 89.9207 61.3354 89.1586C65.7654 87.0686 67.7454 83.2887 67.7754 78.4687C67.7754 72.0287 67.7754 65.5786 67.7754 59.1286C67.8354 49.9386 67.8254 40.7485 67.8554 31.5685ZM39.7754 4.9086L63.4254 28.5487H47.1554C45.9481 28.6041 44.7384 28.5739 43.5354 28.4586C41.1354 28.0986 39.8554 26.9387 39.8054 24.5487C39.6854 17.9287 39.7754 11.2986 39.7754 4.9086ZM65.1554 32.7587V50.5287H43.5954C43.3566 49.7727 42.8551 49.1271 42.1816 48.7086C41.5082 48.2902 40.7072 48.1266 39.9237 48.2475C39.1401 48.3683 38.4256 48.7655 37.9095 49.3673C37.3933 49.9692 37.1096 50.7359 37.1096 51.5287C37.1096 52.3216 37.3933 53.088 37.9095 53.6898C38.4256 54.2917 39.1401 54.6891 39.9237 54.81C40.7072 54.9308 41.5082 54.7672 42.1816 54.3488C42.8551 53.9304 43.3566 53.2847 43.5954 52.5287H65.1554V54.2387H47.6354L44.1154 60.0587C44.0841 60.1046 44.0604 60.1552 44.0454 60.2086C43.5654 60.1076 43.076 60.0574 42.5854 60.0587C40.9826 60.0661 39.437 60.6544 38.2352 61.715C37.0335 62.7755 36.2573 64.2362 36.0508 65.8256C35.8443 67.415 36.2214 69.0254 37.1122 70.3578C38.003 71.6903 39.3469 72.6543 40.8946 73.071C42.4423 73.4876 44.0885 73.3285 45.5279 72.6234C46.9673 71.9183 48.1019 70.715 48.7213 69.2367C49.3407 67.7585 49.4028 66.1057 48.8959 64.5851C48.3891 63.0646 47.3478 61.7797 45.9654 60.9687L48.7954 56.2887H65.1554V78.0587C65.1554 84.0587 61.6254 87.5885 55.6054 87.5885C41.1454 87.5885 26.6921 87.5885 12.2454 87.5885C7.75543 87.5885 4.5954 85.2886 3.4654 81.1386C3.23016 80.1903 3.11922 79.2156 3.13539 78.2387C3.13539 56.332 3.13539 34.4187 3.13539 12.4987C3.13539 6.60869 6.66539 3.11856 12.5754 3.11856C20.2354 3.11856 27.9021 3.11856 35.5754 3.11856H37.0554V4.6586C37.0554 10.9086 37.2154 17.1586 37.0054 23.3986C36.9495 24.4482 37.1146 25.4979 37.4899 26.4796C37.8653 27.4614 38.4425 28.3534 39.1843 29.0981C39.9261 29.8427 40.8159 30.4233 41.7963 30.8024C42.7766 31.1815 43.8256 31.3506 44.8754 31.2987C51.1554 31.0987 57.4554 31.2987 63.7454 31.2987H65.1554V32.7587ZM41.7054 51.5487C41.7074 51.8027 41.6337 52.0516 41.4938 52.2636C41.354 52.4756 41.1542 52.641 40.9199 52.7392C40.6856 52.8373 40.4274 52.8634 40.1782 52.8144C39.9289 52.7653 39.6999 52.6434 39.5203 52.4638C39.3407 52.2842 39.2186 52.055 39.1696 51.8058C39.1205 51.5566 39.1467 51.2984 39.2448 51.0641C39.3429 50.8298 39.5085 50.63 39.7205 50.4901C39.9325 50.3503 40.1814 50.2767 40.4354 50.2787C40.7723 50.2787 41.0953 50.4124 41.3334 50.6505C41.5716 50.8887 41.7054 51.2119 41.7054 51.5487ZM47.1854 66.7487C47.1854 67.6561 46.9165 68.5432 46.4125 69.2978C45.9086 70.0524 45.1923 70.6405 44.3542 70.9882C43.5161 71.3359 42.5937 71.4274 41.7036 71.2511C40.8135 71.0748 39.9957 70.6386 39.3533 69.9977C38.711 69.3568 38.273 68.54 38.0948 67.6503C37.9166 66.7606 38.0061 65.8378 38.3519 64.9989C38.6978 64.16 39.2846 63.4425 40.0381 62.9369C40.7916 62.4314 41.678 62.1606 42.5854 62.1586C43.7985 62.1665 44.9593 62.6532 45.8152 63.5128C46.6711 64.3725 47.1528 65.5356 47.1554 66.7487H47.1854Z" fill="#F5F7FD"/>
<path d="M27.2353 23.0486H12.9153C12.2747 23.0486 11.7553 23.5679 11.7553 24.2086V24.6386C11.7553 25.2792 12.2747 25.7986 12.9153 25.7986H27.2353C27.876 25.7986 28.3953 25.2792 28.3953 24.6386V24.2086C28.3953 23.5679 27.876 23.0486 27.2353 23.0486Z" fill="#F5F7FD"/>
<path d="M33.3654 79.1886C29.3254 70.402 25.272 61.6152 21.2054 52.8285C21.0129 52.3307 20.6668 51.9073 20.2172 51.6195C19.7677 51.3318 19.2381 51.1949 18.7054 51.2287C17.3054 51.2287 15.9054 51.2287 14.4954 51.2287H9.9754C9.1654 51.2287 8.7254 51.6385 8.7254 52.3285C8.7254 53.0185 9.1754 53.4086 10.0354 53.4086H17.7954C19.2654 53.4086 18.9754 53.2185 19.6154 54.5885C19.7023 54.8172 19.7023 55.07 19.6154 55.2987C16.6354 62.3187 13.6354 69.3187 10.6154 76.2987C10.0054 77.7087 9.39542 79.1187 8.80542 80.5487C8.6921 80.7519 8.64741 80.9863 8.67804 81.2169C8.70867 81.4476 8.81297 81.6619 8.9754 81.8285C9.1231 81.9987 9.32397 82.1142 9.54541 82.1559C9.76685 82.1977 9.99585 82.1635 10.1954 82.0587C10.5157 81.833 10.7654 81.5207 10.9154 81.1586C13.7287 74.6186 16.5254 68.0687 19.3054 61.5087L20.9854 57.5685C21.1254 57.8585 21.2054 58.0186 21.2754 58.1786L26.0954 68.6085C27.9487 72.6085 29.7954 76.6085 31.6354 80.6085C31.7694 81.015 32.02 81.3731 32.3561 81.6381C32.6922 81.903 33.0989 82.0631 33.5254 82.0985C35.2454 82.1585 36.9654 82.0985 38.6954 82.0985C38.9914 82.0572 39.2601 81.9032 39.4454 81.6686C39.5771 81.5047 39.6539 81.3035 39.6647 81.0934C39.6754 80.8834 39.6197 80.6752 39.5054 80.4987C39.396 80.3123 39.2346 80.162 39.041 80.0661C38.8473 79.9701 38.6299 79.9328 38.4154 79.9586C37.1854 79.9586 35.9454 79.9086 34.7154 79.9586C34.4365 80.0015 34.1513 79.9488 33.9062 79.809C33.6611 79.6692 33.4705 79.4505 33.3654 79.1886Z" fill="#F5F7FD"/>
<path d="M27.2353 11.6687H12.9153C12.2747 11.6687 11.7553 12.1881 11.7553 12.8287V13.2587C11.7553 13.8994 12.2747 14.4187 12.9153 14.4187H27.2353C27.876 14.4187 28.3953 13.8994 28.3953 13.2587V12.8287C28.3953 12.1881 27.876 11.6687 27.2353 11.6687Z" fill="#F5F7FD"/>
</svg>
