<svg width="80" height="91" viewBox="0 0 80 91" fill="none" xmlns="http://www.w3.org/2000/svg">
<path d="M79.2756 48.1765C79.3187 44.8523 78.0717 41.6409 75.7968 39.2168C73.5218 36.7926 70.3958 35.3444 67.0756 35.1765C66.1856 35.1065 65.2856 35.0566 64.3556 35.0066L62.0856 34.8765V23.1565C62.2664 18.0455 60.6452 13.0336 57.5056 8.99658C52.9956 3.42658 47.2956 0.606445 40.5656 0.606445C39.003 0.611338 37.4439 0.752031 35.9056 1.02661C31.6274 1.73121 27.6699 3.73593 24.5711 6.76855C21.4723 9.80118 19.3824 13.7146 18.5856 17.9766C18.2621 19.8458 18.1015 21.7395 18.1056 23.6365C18.0457 26.0265 18.0557 28.3764 18.1056 30.8564C18.1056 31.8564 18.1056 32.9366 18.1056 33.9866V34.8564L15.6056 35.0166C14.5056 35.0866 13.4656 35.1466 12.4356 35.2366C6.31561 35.7766 1.06563 41.2366 0.965635 47.2366C0.845635 54.8566 0.855659 62.6165 0.865659 70.1165V77.2866C0.836628 80.3009 1.83468 83.235 3.69562 85.6064C6.32561 88.9864 10.0056 90.6064 14.9456 90.6064H38.2256H61.3756C61.3756 90.6064 66.2657 90.5365 67.3057 90.4265C74.3757 89.6365 79.0657 84.7165 79.2357 77.8865C79.4857 67.1165 79.3856 56.3465 79.2756 48.1765ZM21.8756 22.1765C23.5056 3.93651 39.2756 4.2366 40.0856 4.2666C40.8856 4.2666 56.6557 3.93651 58.3057 22.1765C58.5457 24.9065 58.3957 30.7666 58.3057 33.4766C58.2902 33.8639 58.1253 34.2301 57.8456 34.4985C57.566 34.767 57.1933 34.9168 56.8057 34.9165H23.3057C22.92 34.9166 22.5494 34.7663 22.273 34.4973C21.9966 34.2284 21.836 33.8621 21.8256 33.4766C21.7756 30.7966 21.6256 24.9765 21.8756 22.2065V22.1765ZM65.0256 86.7065H14.7156C9.78563 86.7065 6.22563 84.0465 4.96563 79.4365C4.70058 78.3911 4.57616 77.3149 4.59564 76.2366C4.59564 67.2499 4.59564 58.2666 4.59564 49.2866C4.59564 42.8066 8.66561 38.7766 15.1856 38.7766H65.0056C71.5256 38.7766 75.5856 42.7766 75.5956 49.3167C75.5956 58.2566 75.5956 67.1998 75.5956 76.1465C75.5756 82.6865 71.5256 86.7366 65.0256 86.7366V86.7065Z" fill="#F5F7FD"/>
<path d="M40.4157 53.7166H39.8157C38.943 53.7166 38.2357 54.4239 38.2357 55.2966V70.2966C38.2357 71.1692 38.943 71.8766 39.8157 71.8766H40.4157C41.2883 71.8766 41.9957 71.1692 41.9957 70.2966V55.2966C41.9957 54.4239 41.2883 53.7166 40.4157 53.7166Z" fill="#F5F7FD"/>
</svg>
